# xmcd
#
# Track frame offsets:
# 150
# 27323
# 42793
# 84197
# 101617
# 121106
# 138896
# 182007
#
# Disc length: 2589 seconds
#
# Revision: 0
# Processed by: cddbd v1.5.1PL2 Copyright (c) Steve Scherf et al.
# Submitted via: Audion 3.0.2 (http://www.panic.com/audion/)
#
DISCID=570a1b08
DTITLE=Patti Smith - Horses
DYEAR=1900
DGENRE=
TTITLE0=Gloria: In Excelsis Deo/Gloria (Van Morrison Version)
TTITLE1=Redondo Beach
TTITLE2=Birdland
TTITLE3=Free Money
TTITLE4=Kimberly
TTITLE5=Break It Up
TTITLE6=Land: Horses/Land of a Thousand Dances/La Mer (De)
TTITLE7=Elegie
EXTD=
EXTT0=
EXTT1=
EXTT2=
EXTT3=
EXTT4=
EXTT5=
EXTT6=
EXTT7=
PLAYORDER=
